<?xml version="1.0" encoding="iso-8859-1"?>
<!-- Generator: Adobe Illustrator 19.0.0, SVG Export Plug-In . SVG Version: 6.00 Build 0)  -->
<svg version="1.1" id="Capa_1" xmlns="http://www.w3.org/2000/svg" xmlns:xlink="http://www.w3.org/1999/xlink" x="0px" y="0px"
	 viewBox="0 0 512 512" style="enable-background:new 0 0 512 512;" xml:space="preserve">
<g>
	<g>
		<path d="M443.733,0H68.267C30.564,0,0,30.564,0,68.267v375.467C0,481.436,30.564,512,68.267,512h375.467
			C481.436,512,512,481.436,512,443.733V68.267C512,30.564,481.436,0,443.733,0z M443.733,443.733H68.267
			c-9.426,0-17.067-7.641-17.067-17.067S58.841,409.6,68.267,409.6h375.467c9.426,0,17.067,7.641,17.067,17.067
			S453.159,443.733,443.733,443.733z M443.733,273.067H68.267c-9.426,0-17.067-7.641-17.067-17.067s7.641-17.067,17.067-17.067
			h375.467c9.426,0,17.067,7.641,17.067,17.067S453.159,273.067,443.733,273.067z M443.733,102.4H68.267
			c-9.426,0-17.067-7.641-17.067-17.067s7.641-17.067,17.067-17.067h375.467c9.426,0,17.067,7.641,17.067,17.067
			S453.159,102.4,443.733,102.4z"/>
	</g>
</g>
<g>
</g>
<g>
</g>
<g>
</g>
<g>
</g>
<g>
</g>
<g>
</g>
<g>
</g>
<g>
</g>
<g>
</g>
<g>
</g>
<g>
</g>
<g>
</g>
<g>
</g>
<g>
</g>
<g>
</g>
</svg>
